<svg xmlns="http://www.w3.org/2000/svg" width="760" height="520" viewBox="0 0 760 520" font-family="ui-monospace, Menlo, Consolas, monospace"><rect width="760" height="520" fill="var(--frontier-page, #eee8d5)"/><text x="78" y="21" font-size="13" font-weight="700" fill="var(--frontier-label, #586e75)">Pareto frontier</text><text x="732" y="21" font-size="11" fill="var(--frontier-tick, #657b83)" text-anchor="end">up &amp; right is better</text><rect x="78" y="36" width="654" height="420" fill="var(--frontier-panel, #fdf6e3)" stroke="var(--frontier-grid, #93a1a1)"/><line x1="732.0" y1="36" x2="732.0" y2="456" stroke="var(--frontier-grid, #93a1a1)"/><text x="732.0" y="474" font-size="11" fill="var(--frontier-tick, #657b83)" text-anchor="middle">1000</text><line x1="601.2" y1="36" x2="601.2" y2="456" stroke="var(--frontier-grid, #93a1a1)"/><text x="601.2" y="474" font-size="11" fill="var(--frontier-tick, #657b83)" text-anchor="middle">1500</text><line x1="470.4" y1="36" x2="470.4" y2="456" stroke="var(--frontier-grid, #93a1a1)"/><text x="470.4" y="474" font-size="11" fill="var(--frontier-tick, #657b83)" text-anchor="middle">2000</text><line x1="339.6" y1="36" x2="339.6" y2="456" stroke="var(--frontier-grid, #93a1a1)"/><text x="339.6" y="474" font-size="11" fill="var(--frontier-tick, #657b83)" text-anchor="middle">2500</text><line x1="208.8" y1="36" x2="208.8" y2="456" stroke="var(--frontier-grid, #93a1a1)"/><text x="208.8" y="474" font-size="11" fill="var(--frontier-tick, #657b83)" text-anchor="middle">3000</text><line x1="78.0" y1="36" x2="78.0" y2="456" stroke="var(--frontier-grid, #93a1a1)"/><text x="78.0" y="474" font-size="11" fill="var(--frontier-tick, #657b83)" text-anchor="middle">3500</text><line x1="78" y1="456.0" x2="732" y2="456.0" stroke="var(--frontier-grid, #93a1a1)"/><text x="70" y="460.0" font-size="11" fill="var(--frontier-tick, #657b83)" text-anchor="end">0.4</text><line x1="78" y1="372.0" x2="732" y2="372.0" stroke="var(--frontier-grid, #93a1a1)"/><text x="70" y="376.0" font-size="11" fill="var(--frontier-tick, #657b83)" text-anchor="end">0.5</text><line x1="78" y1="288.0" x2="732" y2="288.0" stroke="var(--frontier-grid, #93a1a1)"/><text x="70" y="292.0" font-size="11" fill="var(--frontier-tick, #657b83)" text-anchor="end">0.6</text><line x1="78" y1="204.0" x2="732" y2="204.0" stroke="var(--frontier-grid, #93a1a1)"/><text x="70" y="208.0" font-size="11" fill="var(--frontier-tick, #657b83)" text-anchor="end">0.7</text><line x1="78" y1="120.0" x2="732" y2="120.0" stroke="var(--frontier-grid, #93a1a1)"/><text x="70" y="124.0" font-size="11" fill="var(--frontier-tick, #657b83)" text-anchor="end">0.8</text><line x1="78" y1="36.0" x2="732" y2="36.0" stroke="var(--frontier-grid, #93a1a1)"/><text x="70" y="40.0" font-size="11" fill="var(--frontier-tick, #657b83)" text-anchor="end">0.9</text><text x="405.0" y="506" font-size="12" fill="var(--frontier-tick, #657b83)" text-anchor="middle">put_output_tokens &#8212; lower is better &#8594;</text><text transform="translate(16 246.0) rotate(-90)" font-size="12" fill="var(--frontier-tick, #657b83)" text-anchor="middle">tone_of_voice &#8212; higher is better &#8593;</text><path d="M 78.0 78.0 L 391.9 78.0 L 522.7 78.0 L 522.7 120.0 L 614.3 120.0 L 614.3 456.0 L 732.0 456.0" fill="none" stroke="#6c71c4" stroke-width="2" opacity="0.85"/><circle cx="614.3" cy="456.0" r="6" fill="#268bd2" stroke="var(--frontier-panel, #fdf6e3)" stroke-width="1.5"/><text x="623.3" y="447.0" font-size="11" fill="var(--frontier-label, #586e75)" text-anchor="start">cancel-bot</text><circle cx="391.9" cy="78.0" r="6" fill="#6c71c4" stroke="var(--frontier-panel, #fdf6e3)" stroke-width="1.5"/><text x="400.9" y="69.0" font-size="11" fill="var(--frontier-label, #586e75)" text-anchor="start">cancel-bot#2</text><circle cx="522.7" cy="120.0" r="6" fill="#2aa198" stroke="var(--frontier-panel, #fdf6e3)" stroke-width="1.5"/><text x="531.7" y="111.0" font-size="11" fill="var(--frontier-label, #586e75)" text-anchor="start">cancel-bot#3</text><circle cx="182.6" cy="162.0" r="4.5" fill="none" stroke="#d33682" stroke-width="1.8"/><text x="191.6" y="153.0" font-size="11" fill="var(--frontier-dim-label, #93a1a1)" text-anchor="start">v4-verbose</text></svg>